Coordinates
version=1
nRows=8
nColumns=40
inDegrees=yes

Units are S.I. units (second, meters, Newtons, ...)
If the header above contains a line with 'inDegrees', this indicates whether rotational values are in degrees (yes) or radians (no).

endheader
time	pelvis_tilt	pelvis_list	pelvis_rotation	pelvis_tx	pelvis_ty	pelvis_tz	hip_flexion_r	hip_adduction_r	hip_rotation_r	knee_angle_r	knee_angle_r_beta	ankle_angle_r	subtalar_angle_r	mtp_angle_r	hip_flexion_l	hip_adduction_l	hip_rotation_l	knee_angle_l	knee_angle_l_beta	ankle_angle_l	subtalar_angle_l	mtp_angle_l	lumbar_extension	lumbar_bending	lumbar_rotation	arm_flex_r	arm_add_r	arm_rot_r	elbow_flex_r	pro_sup_r	wrist_flex_r	wrist_dev_r	arm_flex_l	arm_add_l	arm_rot_l	elbow_flex_l	pro_sup_l	wrist_flex_l	wrist_dev_l
      8.65000000	     87.70157300	     89.85155400	     87.71231298	      0.26687967	      0.60943186	      0.88608139	     12.70027850	     -9.49047764	     -8.09191814	     13.39029128	      0.23370467	      4.56911161	      0.00000000	      0.00000000	      8.04108488	    -12.39243021	    -16.32957267	      9.94153900	      0.17351259	      3.62334547	      0.00000000	      0.00000000	     -5.40285190	     -4.35894305	      5.58300345	     15.77618953	      0.55768123	     -0.58278940	      8.66956479	     29.82286960	      0.00000000	      0.00000000	     19.45317216	      1.39871166	    -56.69962616	     15.10204402	     26.49213685	      0.00000000	      0.00000000
      8.65500000	     87.70876197	     89.85340698	     87.71959892	      0.26675621	      0.60933284	      0.88605320	     12.69546241	     -9.49680057	     -8.10133110	     13.40675950	      0.23399210	      4.60011556	      0.00000000	      0.00000000	      8.02929605	    -12.37624703	    -16.31284106	      9.93133460	      0.17333449	      3.65140238	      0.00000000	      0.00000000	     -5.37559354	     -4.33735809	      5.55643134	     15.77305468	      0.54728377	     -0.59054894	      8.65964465	     29.81016954	      0.00000000	      0.00000000	     19.43105471	      1.41147467	    -56.69441038	     15.10287076	     26.48538035	      0.00000000	      0.00000000
      8.66000000	     87.70786580	     89.85205390	     87.71898110	      0.26671625	      0.60929503	      0.88605519	     12.70551223	     -9.50823580	     -8.11296464	     13.42727285	      0.23435012	      4.61084970	      0.00000000	      0.00000000	      8.02464956	    -12.37536257	    -16.29042980	      9.93082265	      0.17332555	      3.66586683	      0.00000000	      0.00000000	     -5.33733026	     -4.32738251	      5.55808407	     15.76095851	      0.54533612	     -0.59644985	      8.65002479	     29.80189401	      0.00000000	      0.00000000	     19.39042227	      1.41724820	    -56.69752910	     15.09599932	     26.48048582	      0.00000000	      0.00000000
      8.66500000	     87.71394954	     89.85493840	     87.72485544	      0.26656154	      0.60922294	      0.88605175	     12.70563422	     -9.52519723	     -8.18198051	     13.46524308	      0.23501283	      4.64940492	      0.00000000	      0.00000000	      8.00390964	    -12.36894170	    -16.29606429	      9.90710837	      0.17291166	      3.72164008	      0.00000000	      0.00000000	     -5.30515959	     -4.30720789	      5.53978035	     15.76274663	      0.53302419	     -0.60986381	      8.64182632	     29.78138785	      0.00000000	      0.00000000	     19.36273878	      1.43195186	    -56.69438895	     15.11163907	     26.47013515	      0.00000000	      0.00000000
      8.67000000	     87.73057748	     89.85302627	     87.74174208	      0.26636813	      0.60908779	      0.88599158	     12.69690921	     -9.53571576	     -8.15450867	     13.48944466	      0.23543522	      4.66024439	      0.00000000	      0.00000000	      8.00992569	    -12.35794789	    -16.25978476	      9.92270268	      0.17318383	      3.72535827	      0.00000000	      0.00000000	     -5.23511339	     -4.29185591	      5.53281811	     15.72321260	      0.52462623	     -0.61850269	      8.62083481	     29.77352718	      0.00000000	      0.00000000	     19.30917507	      1.45051154	    -56.70262378	     15.09655958	     26.46540948	      0.00000000	      0.00000000
      8.67500000	     87.73695499	     89.85244514	     87.74837494	      0.26623655	      0.60901335	      0.88596868	     12.69462585	     -9.54501101	     -8.14460546	     13.50868108	      0.23577096	      4.67482474	      0.00000000	      0.00000000	      8.01133368	    -12.35775846	    -16.22972196	      9.93819706	      0.17345426	      3.73426848	      0.00000000	      0.00000000	     -5.17870317	     -4.27547238	      5.52626388	     15.69625328	      0.51732170	     -0.62635987	      8.60716451	     29.76619852	      0.00000000	      0.00000000	     19.26630264	      1.46067662	    -56.70929641	     15.08876022	     26.46117299	      0.00000000	      0.00000000
      8.68000000	     87.76115719	     89.85497441	     87.77269845	      0.26615542	      0.60875092	      0.88593425	     12.69228644	     -9.58298260	     -8.20271405	     13.53083610	      0.23615764	      4.72355816	      0.00000000	      0.00000000	      8.03352148	    -12.34099202	    -16.26278510	      9.96591769	      0.17393808	      3.77223659	      0.00000000	      0.00000000	     -5.17283023	     -4.24247290	      5.46371948	     15.69648280	      0.48837568	     -0.64325207	      8.60653974	     29.74839108	      0.00000000	      0.00000000	     19.24730389	      1.48970295	    -56.70872643	     15.10436409	     26.45208524	      0.00000000	      0.00000000
      8.68500000	     87.86091892	     89.85430406	     87.87019111	      0.26593841	      0.60847549	      0.88583557	     12.73224408	     -9.67840129	     -8.65817148	     13.76530354	      0.24024987	      4.89595591	      0.00000000	      0.00000000	      8.19322462	    -12.35276776	    -16.13464084	     10.22510166	      0.17846169	      3.97224399	      0.00000000	      0.00000000	     -5.11294369	     -4.22222157	      5.24392543	     15.68151258	      0.52012113	     -0.78097541	      8.60707215	     29.57163967	      0.00000000	      0.00000000	     19.10784666	      1.55066064	    -56.69990586	     15.28592418	     26.36235043	      0.00000000	      0.00000000
